<?xml version="1.0" standalone="no"?>
<!DOCTYPE svg PUBLIC "-//W3C//DTD SVG 1.1//EN" "http://www.w3.org/Graphics/SVG/1.1/DTD/svg11.dtd">
<svg xmlns="http://www.w3.org/2000/svg" xmlns:xlink="http://www.w3.org/1999/xlink" width="797.25" zoomAndPan="magnify" viewBox="0 0 797.25 443.249995" height="443.25" preserveAspectRatio="xMidYMid meet" version="1.0"><defs><g/><clipPath id="74282899c9"><path d="M 246.566406 0 L 537.882812 0 L 537.882812 442.5 L 246.566406 442.5 Z M 246.566406 0 " clip-rule="nonzero"/></clipPath><clipPath id="96fbbe97bd"><path d="M 0.566406 0 L 291.882812 0 L 291.882812 442.5 L 0.566406 442.5 Z M 0.566406 0 " clip-rule="nonzero"/></clipPath><clipPath id="11863c9d31"><rect x="0" width="292" y="0" height="443"/></clipPath><clipPath id="287831349a"><path d="M 246.566406 0.00390625 L 537.820312 0.00390625 L 537.820312 442.5 L 246.566406 442.5 Z M 246.566406 0.00390625 " clip-rule="nonzero"/></clipPath></defs><g clip-path="url(#74282899c9)"><g transform="matrix(1, 0, 0, 1, 246, 0.000000000000033253)"><g clip-path="url(#11863c9d31)"><g clip-path="url(#96fbbe97bd)"><path fill="#f7f6f6" d="M 0.566406 0 L 291.882812 0 L 291.882812 442.667969 L 0.566406 442.667969 Z M 0.566406 0 " fill-opacity="1" fill-rule="nonzero"/></g></g></g></g><g clip-path="url(#287831349a)"><path stroke-linecap="butt" transform="matrix(0.748733, 0, 0, 0.748733, 246.56461, 0.00000998288)" fill="none" stroke-linejoin="miter" d="M 0.00239955 0.00520381 L 389.076281 0.00520381 L 389.076281 590.998288 L 0.00239955 590.998288 Z M 0.00239955 0.00520381 " stroke="#7a7a7a" stroke-width="2" stroke-opacity="1" stroke-miterlimit="4"/></g><g fill="#0e6973" fill-opacity="1"><g transform="translate(241.114037, 394.715348)"><g><path d="M 22.46875 -145.109375 L 65.59375 -145.109375 L 65.59375 0 L 22.46875 0 Z M 22.46875 -314.90625 L 65.59375 -314.90625 L 65.59375 -187.78125 L 22.46875 -187.78125 Z M 22.46875 -314.90625 "/></g></g></g><g fill="#118c8c" fill-opacity="1"><g transform="translate(292.591776, 394.715348)"><g><path d="M 113.65625 -315.359375 C 146.601562 -315.359375 172.660156 -307.273438 191.828125 -291.109375 C 211.285156 -275.234375 221.015625 -253.96875 221.015625 -227.3125 C 221.015625 -214.4375 218.617188 -202.304688 213.828125 -190.921875 C 209.335938 -180.140625 200.503906 -166.664062 187.328125 -150.5 L 153.640625 -115.90625 C 148.847656 -111.113281 143.457031 -105.644531 137.46875 -99.5 C 131.476562 -93.363281 124.738281 -86.550781 117.25 -79.0625 L 65.59375 -79.0625 L 88.5 -101.96875 C 102.570312 -116.050781 114.023438 -127.507812 122.859375 -136.34375 C 131.703125 -145.175781 137.921875 -151.539062 141.515625 -155.4375 C 155.585938 -171.007812 165.019531 -183.738281 169.8125 -193.625 C 175.5 -204.101562 178.34375 -214.4375 178.34375 -224.625 C 178.34375 -241.394531 172.351562 -254.71875 160.375 -264.59375 C 149 -275.082031 133.726562 -280.328125 114.5625 -280.328125 L 24.703125 -280.328125 L 24.703125 -315.359375 Z M 22.90625 -35.9375 L 74.125 -35.9375 L 73.671875 -35.484375 L 222.8125 -35.484375 L 222.8125 -0.453125 L 22.46875 -0.453125 L 22.46875 -35.484375 Z M 22.90625 -35.9375 "/></g></g></g></svg>