<?xml version="1.0" standalone="no"?>
<!DOCTYPE svg PUBLIC "-//W3C//DTD SVG 1.1//EN" "http://www.w3.org/Graphics/SVG/1.1/DTD/svg11.dtd">
<svg xmlns="http://www.w3.org/2000/svg" xmlns:xlink="http://www.w3.org/1999/xlink" width="797.25" zoomAndPan="magnify" viewBox="0 0 797.25 443.249995" height="443.25" preserveAspectRatio="xMidYMid meet" version="1.0"><defs><g/><clipPath id="3527b49be4"><path d="M 0.300781 0 L 796.203125 0 L 796.203125 442.5 L 0.300781 442.5 Z M 0.300781 0 " clip-rule="nonzero"/></clipPath><clipPath id="fe480c8a18"><path d="M 0.300781 0 L 796 0 L 796 442.5 L 0.300781 442.5 Z M 0.300781 0 " clip-rule="nonzero"/></clipPath><clipPath id="ceb1f8cdc4"><rect x="0" width="797" y="0" height="443"/></clipPath></defs><g clip-path="url(#3527b49be4)"><path fill="#ffffff" d="M 0.300781 0 L 796.203125 0 L 796.203125 442.5 L 0.300781 442.5 Z M 0.300781 0 " fill-opacity="1" fill-rule="nonzero"/><path fill="#ffffff" d="M 0.300781 0 L 796.203125 0 L 796.203125 442.5 L 0.300781 442.5 Z M 0.300781 0 " fill-opacity="1" fill-rule="nonzero"/><g transform="matrix(1, 0, 0, 1, 0.000000000000000056, 0.000000000000033253)"><g clip-path="url(#ceb1f8cdc4)"><g clip-path="url(#fe480c8a18)"><path fill="#000000" d="M 0.300781 0 L 795.417969 0 L 795.417969 442.5 L 0.300781 442.5 Z M 0.300781 0 " fill-opacity="1" fill-rule="nonzero"/></g></g></g></g><g fill="#ffffff" fill-opacity="1"><g transform="translate(0.748231, 392.998459)"><g><path d="M 22.46875 -145.109375 L 65.59375 -145.109375 L 65.59375 0 L 22.46875 0 Z M 22.46875 -314.90625 L 65.59375 -314.90625 L 65.59375 -187.78125 L 22.46875 -187.78125 Z M 22.46875 -314.90625 "/></g></g></g><g fill="#ffffff" fill-opacity="1"><g transform="translate(52.225958, 392.998459)"><g><path d="M 113.65625 -315.359375 C 146.601562 -315.359375 172.660156 -307.273438 191.828125 -291.109375 C 211.285156 -275.234375 221.015625 -253.96875 221.015625 -227.3125 C 221.015625 -214.4375 218.617188 -202.304688 213.828125 -190.921875 C 209.335938 -180.140625 200.503906 -166.664062 187.328125 -150.5 L 153.640625 -115.90625 C 148.847656 -111.113281 143.457031 -105.644531 137.46875 -99.5 C 131.476562 -93.363281 124.738281 -86.550781 117.25 -79.0625 L 65.59375 -79.0625 L 88.5 -101.96875 C 102.570312 -116.050781 114.023438 -127.507812 122.859375 -136.34375 C 131.703125 -145.175781 137.921875 -151.539062 141.515625 -155.4375 C 155.585938 -171.007812 165.019531 -183.738281 169.8125 -193.625 C 175.5 -204.101562 178.34375 -214.4375 178.34375 -224.625 C 178.34375 -241.394531 172.351562 -254.71875 160.375 -264.59375 C 149 -275.082031 133.726562 -280.328125 114.5625 -280.328125 L 24.703125 -280.328125 L 24.703125 -315.359375 Z M 22.90625 -35.9375 L 74.125 -35.9375 L 73.671875 -35.484375 L 222.8125 -35.484375 L 222.8125 -0.453125 L 22.46875 -0.453125 L 22.46875 -35.484375 Z M 22.90625 -35.9375 "/></g></g></g><g fill="#ffffff" fill-opacity="1"><g transform="translate(280.47628, 392.998459)"><g><path d="M 150.9375 -177.890625 C 181.1875 -169.804688 203.050781 -158.128906 216.53125 -142.859375 C 230.90625 -127.585938 237.195312 -107.519531 235.40625 -82.65625 C 233.601562 -53.601562 221.921875 -32.191406 200.359375 -18.421875 C 189.273438 -11.535156 175.5 -6.742188 159.03125 -4.046875 C 150.945312 -2.847656 143.382812 -1.945312 136.34375 -1.34375 C 129.300781 -0.75 122.640625 -0.601562 116.359375 -0.90625 C 110.359375 -1.5 103.164062 -1.945312 94.78125 -2.25 C 86.394531 -2.550781 76.960938 -3.148438 66.484375 -4.046875 C 45.816406 -5.835938 31.59375 -6.734375 23.8125 -6.734375 L 26.5 -48.96875 C 30.09375 -48.664062 34.882812 -48.210938 40.875 -47.609375 C 46.863281 -47.015625 54.050781 -46.269531 62.4375 -45.375 C 71.125 -44.476562 78.6875 -43.878906 85.125 -43.578125 C 91.5625 -43.273438 97.03125 -42.828125 101.53125 -42.234375 C 110.8125 -41.929688 121.890625 -42.378906 134.765625 -43.578125 C 147.347656 -45.367188 158.726562 -48.515625 168.90625 -53.015625 C 180.59375 -59.597656 187.484375 -69.179688 189.578125 -81.765625 C 192.273438 -94.335938 188.679688 -106.613281 178.796875 -118.59375 C 171.003906 -126.382812 161.71875 -132.078125 150.9375 -135.671875 Z M 56.15625 -296.5 C 65.132812 -302.488281 74.71875 -306.828125 84.90625 -309.515625 C 90.289062 -311.015625 95.976562 -312.140625 101.96875 -312.890625 C 107.957031 -313.640625 114.097656 -314.164062 120.390625 -314.46875 C 126.984375 -315.0625 133.195312 -315.28125 139.03125 -315.125 C 144.875 -314.976562 150.191406 -314.609375 154.984375 -314.015625 C 165.460938 -313.710938 178.039062 -312.8125 192.71875 -311.3125 L 225.515625 -309.078125 L 222.8125 -266.84375 C 220.414062 -267.445312 213.082031 -268.195312 200.8125 -269.09375 C 194.519531 -269.6875 188.753906 -270.207031 183.515625 -270.65625 C 178.273438 -271.113281 173.40625 -271.34375 168.90625 -271.34375 C 160.519531 -271.632812 150.039062 -271.632812 137.46875 -271.34375 C 125.488281 -271.34375 114.554688 -269.992188 104.671875 -267.296875 C 99.878906 -266.097656 95.6875 -264.675781 92.09375 -263.03125 C 88.5 -261.382812 85.054688 -259.363281 81.765625 -256.96875 C 76.367188 -252.46875 72.773438 -246.328125 70.984375 -238.546875 C 69.785156 -231.953125 70.53125 -224.910156 73.21875 -217.421875 C 76.21875 -210.234375 80.5625 -203.945312 86.25 -198.5625 C 92.539062 -193.164062 99.878906 -190.019531 108.265625 -189.125 L 108.265625 -147.34375 C 75.617188 -156.332031 53.007812 -167.113281 40.4375 -179.6875 C 27.550781 -193.769531 21.5625 -212.34375 22.46875 -235.40625 C 24.257812 -262.050781 35.488281 -282.414062 56.15625 -296.5 Z M 56.15625 -296.5 "/></g></g></g><g fill="#ffffff" fill-opacity="1"><g transform="translate(475.15801, 392.998459)"><g><path d="M 66.9375 -116.359375 L 267.296875 -116.359375 L 311.765625 0 L 267.296875 0 L 238.546875 -80.859375 L 96.140625 -80.859375 L 67.390625 0 L 22.46875 0 Z M 142.859375 -315.359375 L 191.375 -315.359375 L 253.375 -152.734375 L 211.59375 -152.734375 L 167.109375 -273.578125 L 122.640625 -152.734375 L 80.859375 -152.734375 Z M 142.859375 -315.359375 "/></g></g></g></svg>